<svg width="1024" height="1024" viewBox="0 0 1024 1024" fill="none" xmlns="http://www.w3.org/2000/svg">
<rect width="1024" height="1024" fill="#121212"/>
<path d="M512 200C339.8 200 200 339.8 200 512C200 684.2 339.8 824 512 824C684.2 824 824 684.2 824 512C824 339.8 684.2 200 512 200ZM512 744C383.8 744 280 640.2 280 512C280 383.8 383.8 280 512 280C640.2 280 744 383.8 744 512C744 640.2 640.2 744 512 744Z" fill="#FACC15"/>
<path d="M512 360C428.2 360 360 428.2 360 512C360 595.8 428.2 664 512 664C595.8 664 664 595.8 664 512C664 428.2 595.8 360 512 360ZM512 600C463.4 600 424 560.6 424 512C424 463.4 463.4 424 512 424C560.6 424 600 463.4 600 512C600 560.6 560.6 600 512 600Z" fill="#FACC15"/>
</svg>
